G75*
%MOIN*%
%OFA0B0*%
%FSLAX25Y25*%
%IPPOS*%
%LPD*%
%AMOC8*
5,1,8,0,0,1.08239X$1,22.5*
%
%ADD10C,0.00500*%
%ADD11C,0.00600*%
%ADD12C,0.03000*%
%ADD13R,0.03000X0.02000*%
%ADD14R,0.03000X0.04000*%
D10*
X0013611Y0013061D02*
X0019517Y0013061D01*
X0019517Y0009124D01*
X0025422Y0009124D01*
X0025422Y0001250D01*
X0030671Y0001250D01*
X0034608Y0001250D02*
X0039858Y0001250D01*
X0043795Y0001250D02*
X0049044Y0001250D01*
X0049044Y0009124D01*
X0045107Y0009124D01*
X0045107Y0013848D01*
X0029359Y0013848D01*
X0029359Y0009124D01*
X0025422Y0009124D01*
X0013611Y0013061D02*
X0013611Y0056368D01*
X0060855Y0056368D01*
X0060855Y0013061D01*
X0054950Y0013061D01*
X0054950Y0009124D01*
X0049044Y0009124D01*
X0050734Y0094768D02*
X0049983Y0095518D01*
X0049983Y0096269D01*
X0050734Y0097020D01*
X0054487Y0097020D01*
X0054487Y0097770D02*
X0054487Y0096269D01*
X0054487Y0099372D02*
X0054487Y0101624D01*
X0053736Y0102374D01*
X0052235Y0102374D01*
X0051484Y0101624D01*
X0051484Y0099372D01*
X0049983Y0099372D02*
X0054487Y0099372D01*
X0052986Y0103976D02*
X0054487Y0105477D01*
X0049983Y0105477D01*
X0049983Y0103976D02*
X0049983Y0106978D01*
D11*
X0047233Y0102018D02*
X0047233Y0112018D01*
X0037233Y0112018D01*
X0027233Y0112018D01*
X0027233Y0102018D01*
X0037233Y0102018D01*
X0037233Y0112018D01*
X0037233Y0102018D02*
X0047233Y0102018D01*
D12*
X0042233Y0114518D02*
X0042233Y0137018D01*
X0032233Y0137018D02*
X0032233Y0114518D01*
D13*
X0032233Y0113018D03*
X0042233Y0113018D03*
D14*
X0042233Y0100018D03*
X0032233Y0100018D03*
M02*
