%
M48
M72
T01C0.0400
T02C0.0472
T03C0.0591
%
T01
X723Y1412
X723Y2412
X723Y3412
X723Y4412
X723Y5412
X723Y6412
X723Y7412
X723Y8412
X723Y9412
X723Y10412
X723Y11412
X723Y12412
X3223Y9452
X4223Y9452
X6723Y9412
X6723Y8412
X6723Y7412
X6723Y6412
X6723Y5412
X6723Y4412
X6723Y3412
X6723Y2412
X6723Y1412
X6723Y10412
X6723Y11412
X6723Y12412
T02
X3723Y4653
X1755Y2684
X1755Y1700
X5692Y1700
X5692Y2684
T03
X5692Y4653
X4708Y4653
X3723Y2684
X2739Y4653
X1755Y4653
M30
