G75*
%MOIN*%
%OFA0B0*%
%FSLAX25Y25*%
%IPPOS*%
%LPD*%
%AMOC8*
5,1,8,0,0,1.08239X$1,22.5*
%
%ADD10C,0.08858*%
%ADD11C,0.04800*%
%ADD12OC8,0.06000*%
%ADD13C,0.01600*%
D10*
X0017548Y0046526D03*
X0027391Y0046526D03*
X0037233Y0026841D03*
X0047076Y0046526D03*
X0056918Y0046526D03*
D11*
X0007233Y0014124D03*
X0007233Y0024124D03*
X0007233Y0034124D03*
X0007233Y0044124D03*
X0007233Y0054124D03*
X0007233Y0064124D03*
X0007233Y0074124D03*
X0007233Y0084124D03*
X0007233Y0094124D03*
X0007233Y0104124D03*
X0007233Y0114124D03*
X0007233Y0124124D03*
X0067233Y0124124D03*
X0067233Y0114124D03*
X0067233Y0104124D03*
X0067233Y0094124D03*
X0067233Y0084124D03*
X0067233Y0074124D03*
X0067233Y0064124D03*
X0067233Y0054124D03*
X0067233Y0044124D03*
X0067233Y0034124D03*
X0067233Y0024124D03*
X0067233Y0014124D03*
D12*
X0042233Y0094518D03*
X0032233Y0094518D03*
D13*
X0032312Y0094439D01*
X0032312Y0091801D01*
X0024635Y0084124D01*
X0007233Y0084124D01*
X0005335Y0087451D02*
X0004100Y0087451D01*
X0005081Y0087345D02*
X0004100Y0086365D01*
X0004100Y0091317D01*
X0004497Y0090920D01*
X0005032Y0090532D01*
X0005621Y0090232D01*
X0006250Y0090027D01*
X0006903Y0089924D01*
X0007233Y0089924D01*
X0007233Y0094124D01*
X0007233Y0094124D01*
X0007233Y0098324D01*
X0006903Y0098324D01*
X0006250Y0098221D01*
X0005621Y0098016D01*
X0005032Y0097716D01*
X0004497Y0097328D01*
X0004100Y0096931D01*
X0004100Y0101317D01*
X0004497Y0100920D01*
X0005032Y0100532D01*
X0005621Y0100232D01*
X0006250Y0100027D01*
X0006903Y0099924D01*
X0007233Y0099924D01*
X0007233Y0104124D01*
X0007233Y0104124D01*
X0007233Y0108324D01*
X0006903Y0108324D01*
X0006250Y0108221D01*
X0005621Y0108016D01*
X0005032Y0107716D01*
X0004497Y0107328D01*
X0004100Y0106931D01*
X0004100Y0111883D01*
X0005081Y0110903D01*
X0006477Y0110324D01*
X0007989Y0110324D01*
X0009386Y0110903D01*
X0010455Y0111971D01*
X0011033Y0113368D01*
X0011033Y0114880D01*
X0010455Y0116277D01*
X0009386Y0117345D01*
X0007989Y0117924D01*
X0006477Y0117924D01*
X0005081Y0117345D01*
X0004100Y0116365D01*
X0004100Y0121883D01*
X0005081Y0120903D01*
X0006477Y0120324D01*
X0007989Y0120324D01*
X0009386Y0120903D01*
X0010455Y0121971D01*
X0011033Y0123368D01*
X0011033Y0124880D01*
X0010455Y0126277D01*
X0009386Y0127345D01*
X0007989Y0127924D01*
X0006477Y0127924D01*
X0005081Y0127345D01*
X0004100Y0126365D01*
X0004100Y0135108D01*
X0004131Y0135428D01*
X0004376Y0136018D01*
X0004828Y0136469D01*
X0005418Y0136714D01*
X0005737Y0136745D01*
X0068729Y0136745D01*
X0069048Y0136714D01*
X0069639Y0136469D01*
X0070090Y0136018D01*
X0070335Y0135428D01*
X0070366Y0135108D01*
X0070366Y0126365D01*
X0069386Y0127345D01*
X0067989Y0127924D01*
X0066477Y0127924D01*
X0065081Y0127345D01*
X0064012Y0126277D01*
X0063433Y0124880D01*
X0063433Y0123368D01*
X0064012Y0121971D01*
X0065081Y0120903D01*
X0066477Y0120324D01*
X0067989Y0120324D01*
X0069386Y0120903D01*
X0070366Y0121883D01*
X0070366Y0116931D01*
X0069969Y0117328D01*
X0069434Y0117716D01*
X0068845Y0118016D01*
X0068217Y0118221D01*
X0067564Y0118324D01*
X0067233Y0118324D01*
X0066903Y0118324D01*
X0066250Y0118221D01*
X0065621Y0118016D01*
X0065032Y0117716D01*
X0064497Y0117328D01*
X0064029Y0116860D01*
X0063641Y0116325D01*
X0063341Y0115736D01*
X0063136Y0115108D01*
X0063033Y0114455D01*
X0063033Y0114124D01*
X0063033Y0113793D01*
X0063136Y0113141D01*
X0063341Y0112512D01*
X0063641Y0111923D01*
X0064029Y0111388D01*
X0064497Y0110920D01*
X0065032Y0110532D01*
X0065621Y0110232D01*
X0066250Y0110027D01*
X0066903Y0109924D01*
X0067233Y0109924D01*
X0067233Y0114124D01*
X0063033Y0114124D01*
X0067233Y0114124D01*
X0067233Y0114124D01*
X0067233Y0114124D01*
X0067233Y0118324D01*
X0067233Y0114124D01*
X0067233Y0114124D01*
X0067233Y0109924D01*
X0067564Y0109924D01*
X0068217Y0110027D01*
X0068845Y0110232D01*
X0069434Y0110532D01*
X0069969Y0110920D01*
X0070366Y0111317D01*
X0070366Y0106365D01*
X0069386Y0107345D01*
X0067989Y0107924D01*
X0066477Y0107924D01*
X0065081Y0107345D01*
X0064012Y0106277D01*
X0063433Y0104880D01*
X0063433Y0103368D01*
X0064012Y0101971D01*
X0065081Y0100903D01*
X0066477Y0100324D01*
X0067989Y0100324D01*
X0069386Y0100903D01*
X0070366Y0101883D01*
X0070366Y0096365D01*
X0069386Y0097345D01*
X0067989Y0097924D01*
X0066477Y0097924D01*
X0065081Y0097345D01*
X0064012Y0096277D01*
X0063433Y0094880D01*
X0063433Y0093368D01*
X0064012Y0091971D01*
X0065081Y0090903D01*
X0066477Y0090324D01*
X0067989Y0090324D01*
X0069386Y0090903D01*
X0070366Y0091883D01*
X0070366Y0086365D01*
X0069386Y0087345D01*
X0067989Y0087924D01*
X0066477Y0087924D01*
X0065081Y0087345D01*
X0064012Y0086277D01*
X0063433Y0084880D01*
X0063433Y0083368D01*
X0064012Y0081971D01*
X0065081Y0080903D01*
X0066477Y0080324D01*
X0067989Y0080324D01*
X0069386Y0080903D01*
X0070366Y0081883D01*
X0070366Y0076365D01*
X0069386Y0077345D01*
X0067989Y0077924D01*
X0066477Y0077924D01*
X0065081Y0077345D01*
X0064012Y0076277D01*
X0063433Y0074880D01*
X0063433Y0073368D01*
X0064012Y0071971D01*
X0065081Y0070903D01*
X0066477Y0070324D01*
X0067989Y0070324D01*
X0069386Y0070903D01*
X0070366Y0071883D01*
X0070366Y0066365D01*
X0069386Y0067345D01*
X0067989Y0067924D01*
X0066477Y0067924D01*
X0065081Y0067345D01*
X0064012Y0066277D01*
X0063433Y0064880D01*
X0063433Y0063368D01*
X0064012Y0061971D01*
X0065081Y0060903D01*
X0066477Y0060324D01*
X0067989Y0060324D01*
X0069386Y0060903D01*
X0070366Y0061883D01*
X0070366Y0056365D01*
X0069386Y0057345D01*
X0067989Y0057924D01*
X0066477Y0057924D01*
X0065081Y0057345D01*
X0064012Y0056277D01*
X0063433Y0054880D01*
X0063433Y0053368D01*
X0064012Y0051971D01*
X0065081Y0050903D01*
X0066477Y0050324D01*
X0067989Y0050324D01*
X0069386Y0050903D01*
X0070366Y0051883D01*
X0070366Y0046365D01*
X0069386Y0047345D01*
X0067989Y0047924D01*
X0066477Y0047924D01*
X0065081Y0047345D01*
X0064012Y0046277D01*
X0063433Y0044880D01*
X0063433Y0043368D01*
X0064012Y0041971D01*
X0065081Y0040903D01*
X0066477Y0040324D01*
X0067989Y0040324D01*
X0069386Y0040903D01*
X0070366Y0041883D01*
X0070366Y0036365D01*
X0069386Y0037345D01*
X0067989Y0037924D01*
X0066477Y0037924D01*
X0065081Y0037345D01*
X0064012Y0036277D01*
X0063433Y0034880D01*
X0063433Y0033368D01*
X0064012Y0031971D01*
X0065081Y0030903D01*
X0066477Y0030324D01*
X0067989Y0030324D01*
X0069386Y0030903D01*
X0070366Y0031883D01*
X0070366Y0026365D01*
X0069386Y0027345D01*
X0067989Y0027924D01*
X0066477Y0027924D01*
X0065081Y0027345D01*
X0064012Y0026277D01*
X0063433Y0024880D01*
X0063433Y0023368D01*
X0064012Y0021971D01*
X0065081Y0020903D01*
X0066477Y0020324D01*
X0067989Y0020324D01*
X0069386Y0020903D01*
X0070366Y0021883D01*
X0070366Y0016365D01*
X0069386Y0017345D01*
X0067989Y0017924D01*
X0066477Y0017924D01*
X0065081Y0017345D01*
X0064012Y0016277D01*
X0063433Y0014880D01*
X0063433Y0013368D01*
X0064012Y0011971D01*
X0064559Y0011424D01*
X0009907Y0011424D01*
X0010455Y0011971D01*
X0011033Y0013368D01*
X0011033Y0014880D01*
X0010455Y0016277D01*
X0009386Y0017345D01*
X0007989Y0017924D01*
X0006477Y0017924D01*
X0005081Y0017345D01*
X0004100Y0016365D01*
X0004100Y0021883D01*
X0005081Y0020903D01*
X0006477Y0020324D01*
X0007989Y0020324D01*
X0009386Y0020903D01*
X0010455Y0021971D01*
X0011033Y0023368D01*
X0011033Y0024880D01*
X0010455Y0026277D01*
X0009386Y0027345D01*
X0007989Y0027924D01*
X0006477Y0027924D01*
X0005081Y0027345D01*
X0004100Y0026365D01*
X0004100Y0031883D01*
X0005081Y0030903D01*
X0006477Y0030324D01*
X0007989Y0030324D01*
X0009386Y0030903D01*
X0010455Y0031971D01*
X0011033Y0033368D01*
X0011033Y0034880D01*
X0010455Y0036277D01*
X0009386Y0037345D01*
X0007989Y0037924D01*
X0006477Y0037924D01*
X0005081Y0037345D01*
X0004100Y0036365D01*
X0004100Y0041883D01*
X0005081Y0040903D01*
X0006477Y0040324D01*
X0007989Y0040324D01*
X0009386Y0040903D01*
X0010455Y0041971D01*
X0011033Y0043368D01*
X0011033Y0044880D01*
X0010455Y0046277D01*
X0009386Y0047345D01*
X0007989Y0047924D01*
X0006477Y0047924D01*
X0005081Y0047345D01*
X0004100Y0046365D01*
X0004100Y0051883D01*
X0005081Y0050903D01*
X0006477Y0050324D01*
X0007989Y0050324D01*
X0009386Y0050903D01*
X0010455Y0051971D01*
X0011033Y0053368D01*
X0011033Y0054880D01*
X0010455Y0056277D01*
X0009386Y0057345D01*
X0007989Y0057924D01*
X0006477Y0057924D01*
X0005081Y0057345D01*
X0004100Y0056365D01*
X0004100Y0061883D01*
X0005081Y0060903D01*
X0006477Y0060324D01*
X0007989Y0060324D01*
X0009386Y0060903D01*
X0010407Y0061924D01*
X0035456Y0061924D01*
X0044876Y0052504D01*
X0044876Y0051924D01*
X0043774Y0051467D01*
X0042134Y0049828D01*
X0041523Y0048352D01*
X0041185Y0049167D01*
X0039874Y0050478D01*
X0038160Y0051188D01*
X0036306Y0051188D01*
X0034592Y0050478D01*
X0033281Y0049167D01*
X0032943Y0048352D01*
X0032332Y0049828D01*
X0030692Y0051467D01*
X0028550Y0052355D01*
X0026231Y0052355D01*
X0024089Y0051467D01*
X0022469Y0049848D01*
X0020850Y0051467D01*
X0018708Y0052355D01*
X0016389Y0052355D01*
X0014246Y0051467D01*
X0012606Y0049828D01*
X0011719Y0047685D01*
X0011719Y0045366D01*
X0012606Y0043224D01*
X0014246Y0041584D01*
X0016389Y0040696D01*
X0018708Y0040696D01*
X0020850Y0041584D01*
X0022469Y0043203D01*
X0024089Y0041584D01*
X0026231Y0040696D01*
X0028550Y0040696D01*
X0030692Y0041584D01*
X0032332Y0043224D01*
X0032943Y0044699D01*
X0033281Y0043885D01*
X0034592Y0042573D01*
X0036306Y0041863D01*
X0038160Y0041863D01*
X0039874Y0042573D01*
X0041185Y0043885D01*
X0041523Y0044699D01*
X0042134Y0043224D01*
X0043774Y0041584D01*
X0045916Y0040696D01*
X0048235Y0040696D01*
X0050378Y0041584D01*
X0051997Y0043203D01*
X0053616Y0041584D01*
X0055759Y0040696D01*
X0058078Y0040696D01*
X0060220Y0041584D01*
X0061860Y0043224D01*
X0062747Y0045366D01*
X0062747Y0047685D01*
X0061860Y0049828D01*
X0060220Y0051467D01*
X0058078Y0052355D01*
X0055759Y0052355D01*
X0053616Y0051467D01*
X0051997Y0049848D01*
X0050378Y0051467D01*
X0049276Y0051924D01*
X0049276Y0054327D01*
X0047987Y0055615D01*
X0037278Y0066324D01*
X0010407Y0066324D01*
X0009386Y0067345D01*
X0007989Y0067924D01*
X0006477Y0067924D01*
X0005081Y0067345D01*
X0004100Y0066365D01*
X0004100Y0071883D01*
X0005081Y0070903D01*
X0006477Y0070324D01*
X0007989Y0070324D01*
X0009386Y0070903D01*
X0010455Y0071971D01*
X0011033Y0073368D01*
X0011033Y0074880D01*
X0010455Y0076277D01*
X0009386Y0077345D01*
X0007989Y0077924D01*
X0006477Y0077924D01*
X0005081Y0077345D01*
X0004100Y0076365D01*
X0004100Y0081883D01*
X0005081Y0080903D01*
X0006477Y0080324D01*
X0007989Y0080324D01*
X0009386Y0080903D01*
X0010407Y0081924D01*
X0025546Y0081924D01*
X0033223Y0089601D01*
X0033740Y0090118D01*
X0034056Y0090118D01*
X0036633Y0092695D01*
X0036633Y0096340D01*
X0034056Y0098918D01*
X0030411Y0098918D01*
X0027833Y0096340D01*
X0027833Y0092695D01*
X0028964Y0091564D01*
X0023723Y0086324D01*
X0010407Y0086324D01*
X0009386Y0087345D01*
X0007989Y0087924D01*
X0006477Y0087924D01*
X0005081Y0087345D01*
X0004100Y0089050D02*
X0026449Y0089050D01*
X0028047Y0090648D02*
X0009594Y0090648D01*
X0009434Y0090532D02*
X0009969Y0090920D01*
X0010437Y0091388D01*
X0010825Y0091923D01*
X0011125Y0092512D01*
X0011330Y0093141D01*
X0011433Y0093793D01*
X0011433Y0094124D01*
X0011433Y0094455D01*
X0011330Y0095108D01*
X0011125Y0095736D01*
X0010825Y0096325D01*
X0010437Y0096860D01*
X0009969Y0097328D01*
X0009434Y0097716D01*
X0008845Y0098016D01*
X0008217Y0098221D01*
X0007564Y0098324D01*
X0007233Y0098324D01*
X0007233Y0094124D01*
X0007233Y0094124D01*
X0007233Y0089924D01*
X0007564Y0089924D01*
X0008217Y0090027D01*
X0008845Y0090232D01*
X0009434Y0090532D01*
X0010990Y0092247D02*
X0028282Y0092247D01*
X0027833Y0093845D02*
X0011433Y0093845D01*
X0011433Y0094124D02*
X0007233Y0094124D01*
X0011433Y0094124D01*
X0011220Y0095444D02*
X0027833Y0095444D01*
X0028535Y0097042D02*
X0010255Y0097042D01*
X0008845Y0100232D02*
X0008217Y0100027D01*
X0007564Y0099924D01*
X0007233Y0099924D01*
X0007233Y0104124D01*
X0007233Y0104124D01*
X0007233Y0108324D01*
X0007564Y0108324D01*
X0008217Y0108221D01*
X0008845Y0108016D01*
X0009434Y0107716D01*
X0009969Y0107328D01*
X0010437Y0106860D01*
X0010825Y0106325D01*
X0011125Y0105736D01*
X0011330Y0105108D01*
X0011433Y0104455D01*
X0011433Y0104124D01*
X0007233Y0104124D01*
X0007233Y0104124D01*
X0011433Y0104124D01*
X0011433Y0103793D01*
X0011330Y0103141D01*
X0011125Y0102512D01*
X0010825Y0101923D01*
X0010437Y0101388D01*
X0009969Y0100920D01*
X0009434Y0100532D01*
X0008845Y0100232D01*
X0008860Y0100239D02*
X0070366Y0100239D01*
X0070321Y0101838D02*
X0070366Y0101838D01*
X0070366Y0098641D02*
X0044898Y0098641D01*
X0044221Y0099318D02*
X0042433Y0099318D01*
X0042433Y0094718D01*
X0042033Y0094718D01*
X0042033Y0099318D01*
X0040245Y0099318D01*
X0037433Y0096506D01*
X0037433Y0094718D01*
X0042033Y0094718D01*
X0042033Y0094318D01*
X0037433Y0094318D01*
X0037433Y0092529D01*
X0040245Y0089718D01*
X0042033Y0089718D01*
X0042033Y0094318D01*
X0042433Y0094318D01*
X0042433Y0094718D01*
X0047033Y0094718D01*
X0047033Y0096506D01*
X0044221Y0099318D01*
X0042433Y0098641D02*
X0042033Y0098641D01*
X0042033Y0097042D02*
X0042433Y0097042D01*
X0042433Y0095444D02*
X0042033Y0095444D01*
X0042433Y0094318D02*
X0047033Y0094318D01*
X0047033Y0092529D01*
X0044221Y0089718D01*
X0042433Y0089718D01*
X0042433Y0094318D01*
X0042433Y0093845D02*
X0042033Y0093845D01*
X0042033Y0092247D02*
X0042433Y0092247D01*
X0042433Y0090648D02*
X0042033Y0090648D01*
X0039314Y0090648D02*
X0034586Y0090648D01*
X0036184Y0092247D02*
X0037716Y0092247D01*
X0037433Y0093845D02*
X0036633Y0093845D01*
X0036633Y0095444D02*
X0037433Y0095444D01*
X0037969Y0097042D02*
X0035931Y0097042D01*
X0034333Y0098641D02*
X0039568Y0098641D01*
X0045152Y0090648D02*
X0065695Y0090648D01*
X0065335Y0087451D02*
X0031073Y0087451D01*
X0029474Y0085853D02*
X0063836Y0085853D01*
X0063433Y0084254D02*
X0027876Y0084254D01*
X0026277Y0082656D02*
X0063728Y0082656D01*
X0064926Y0081057D02*
X0009540Y0081057D01*
X0008143Y0077860D02*
X0066323Y0077860D01*
X0068143Y0077860D02*
X0070366Y0077860D01*
X0070366Y0079459D02*
X0004100Y0079459D01*
X0004100Y0077860D02*
X0006323Y0077860D01*
X0004926Y0081057D02*
X0004100Y0081057D01*
X0004100Y0090648D02*
X0004872Y0090648D01*
X0007233Y0090648D02*
X0007233Y0090648D01*
X0007233Y0092247D02*
X0007233Y0092247D01*
X0007233Y0093845D02*
X0007233Y0093845D01*
X0007233Y0094124D02*
X0007233Y0094124D01*
X0007233Y0095444D02*
X0007233Y0095444D01*
X0007233Y0097042D02*
X0007233Y0097042D01*
X0007233Y0100239D02*
X0007233Y0100239D01*
X0007233Y0101838D02*
X0007233Y0101838D01*
X0007233Y0103436D02*
X0007233Y0103436D01*
X0007233Y0105035D02*
X0007233Y0105035D01*
X0007233Y0106633D02*
X0007233Y0106633D01*
X0007233Y0108232D02*
X0007233Y0108232D01*
X0006320Y0108232D02*
X0004100Y0108232D01*
X0004100Y0109830D02*
X0070366Y0109830D01*
X0070366Y0108232D02*
X0008146Y0108232D01*
X0009912Y0111429D02*
X0064000Y0111429D01*
X0063173Y0113027D02*
X0010892Y0113027D01*
X0011033Y0114626D02*
X0063060Y0114626D01*
X0063589Y0116224D02*
X0010476Y0116224D01*
X0008233Y0117823D02*
X0065241Y0117823D01*
X0067233Y0117823D02*
X0067233Y0117823D01*
X0067233Y0116224D02*
X0067233Y0116224D01*
X0067233Y0114626D02*
X0067233Y0114626D01*
X0067233Y0113027D02*
X0067233Y0113027D01*
X0067233Y0111429D02*
X0067233Y0111429D01*
X0064368Y0106633D02*
X0010602Y0106633D01*
X0011341Y0105035D02*
X0063497Y0105035D01*
X0063433Y0103436D02*
X0011376Y0103436D01*
X0010763Y0101838D02*
X0064145Y0101838D01*
X0064777Y0097042D02*
X0046497Y0097042D01*
X0047033Y0095444D02*
X0063667Y0095444D01*
X0063433Y0093845D02*
X0047033Y0093845D01*
X0046750Y0092247D02*
X0063898Y0092247D01*
X0068771Y0090648D02*
X0070366Y0090648D01*
X0070366Y0089050D02*
X0032671Y0089050D01*
X0030133Y0098641D02*
X0004100Y0098641D01*
X0004100Y0097042D02*
X0004212Y0097042D01*
X0004100Y0100239D02*
X0005606Y0100239D01*
X0004554Y0111429D02*
X0004100Y0111429D01*
X0004100Y0117823D02*
X0006233Y0117823D01*
X0004100Y0119421D02*
X0070366Y0119421D01*
X0070366Y0121020D02*
X0069503Y0121020D01*
X0069225Y0117823D02*
X0070366Y0117823D01*
X0064963Y0121020D02*
X0009503Y0121020D01*
X0010722Y0122618D02*
X0063744Y0122618D01*
X0063433Y0124217D02*
X0011033Y0124217D01*
X0010646Y0125815D02*
X0063821Y0125815D01*
X0065246Y0127414D02*
X0009221Y0127414D01*
X0005246Y0127414D02*
X0004100Y0127414D01*
X0004100Y0129012D02*
X0070366Y0129012D01*
X0070366Y0127414D02*
X0069221Y0127414D01*
X0070366Y0130611D02*
X0004100Y0130611D01*
X0004100Y0132209D02*
X0070366Y0132209D01*
X0070366Y0133808D02*
X0004100Y0133808D01*
X0004129Y0135406D02*
X0070337Y0135406D01*
X0070098Y0106633D02*
X0070366Y0106633D01*
X0070366Y0097042D02*
X0069689Y0097042D01*
X0069131Y0087451D02*
X0070366Y0087451D01*
X0070366Y0081057D02*
X0069540Y0081057D01*
X0069949Y0071466D02*
X0070366Y0071466D01*
X0070366Y0069867D02*
X0004100Y0069867D01*
X0004100Y0068269D02*
X0070366Y0068269D01*
X0070366Y0066670D02*
X0070061Y0066670D01*
X0070358Y0061875D02*
X0070366Y0061875D01*
X0070366Y0060276D02*
X0043326Y0060276D01*
X0044924Y0058678D02*
X0070366Y0058678D01*
X0070366Y0057079D02*
X0069652Y0057079D01*
X0070366Y0050685D02*
X0068861Y0050685D01*
X0070366Y0049087D02*
X0062167Y0049087D01*
X0062747Y0047488D02*
X0065425Y0047488D01*
X0063851Y0045890D02*
X0062747Y0045890D01*
X0062302Y0044291D02*
X0063433Y0044291D01*
X0063713Y0042693D02*
X0061329Y0042693D01*
X0059038Y0041094D02*
X0064889Y0041094D01*
X0066413Y0037897D02*
X0008054Y0037897D01*
X0006413Y0037897D02*
X0004100Y0037897D01*
X0004100Y0039496D02*
X0070366Y0039496D01*
X0070366Y0041094D02*
X0069577Y0041094D01*
X0070366Y0037897D02*
X0068054Y0037897D01*
X0069986Y0031503D02*
X0070366Y0031503D01*
X0070366Y0029905D02*
X0060447Y0029905D01*
X0060871Y0029481D02*
X0059559Y0030793D01*
X0057845Y0031503D01*
X0055991Y0031503D01*
X0054277Y0030793D01*
X0052966Y0029481D01*
X0052256Y0027768D01*
X0052256Y0025913D01*
X0052966Y0024200D01*
X0054277Y0022888D01*
X0055991Y0022178D01*
X0057845Y0022178D01*
X0059559Y0022888D01*
X0060871Y0024200D01*
X0061580Y0025913D01*
X0061580Y0027768D01*
X0060871Y0029481D01*
X0061357Y0028306D02*
X0070366Y0028306D01*
X0070366Y0026708D02*
X0070023Y0026708D01*
X0070366Y0020314D02*
X0060196Y0020314D01*
X0059559Y0020950D02*
X0057845Y0021660D01*
X0055991Y0021660D01*
X0054277Y0020950D01*
X0052966Y0019639D01*
X0052256Y0017925D01*
X0052256Y0016071D01*
X0052966Y0014357D01*
X0054277Y0013046D01*
X0055991Y0012336D01*
X0057845Y0012336D01*
X0059559Y0013046D01*
X0060871Y0014357D01*
X0061580Y0016071D01*
X0061580Y0017925D01*
X0060871Y0019639D01*
X0059559Y0020950D01*
X0060182Y0023511D02*
X0063433Y0023511D01*
X0064071Y0021912D02*
X0041047Y0021912D01*
X0041291Y0022089D02*
X0041984Y0022783D01*
X0042561Y0023576D01*
X0043006Y0024449D01*
X0043309Y0025382D01*
X0043433Y0026164D01*
X0037910Y0026164D01*
X0037910Y0027517D01*
X0043433Y0027517D01*
X0043309Y0028299D01*
X0043006Y0029232D01*
X0042561Y0030105D01*
X0041984Y0030899D01*
X0041291Y0031592D01*
X0040498Y0032168D01*
X0039624Y0032613D01*
X0038692Y0032916D01*
X0037909Y0033040D01*
X0037909Y0027517D01*
X0036557Y0027517D01*
X0036557Y0033040D01*
X0035774Y0032916D01*
X0034842Y0032613D01*
X0033968Y0032168D01*
X0033175Y0031592D01*
X0032482Y0030899D01*
X0031905Y0030105D01*
X0031460Y0029232D01*
X0031157Y0028299D01*
X0031033Y0027517D01*
X0036557Y0027517D01*
X0036557Y0026164D01*
X0037909Y0026164D01*
X0037909Y0020641D01*
X0038692Y0020765D01*
X0039624Y0021068D01*
X0040498Y0021513D01*
X0041291Y0022089D01*
X0042513Y0023511D02*
X0053655Y0023511D01*
X0052589Y0025109D02*
X0043220Y0025109D01*
X0043307Y0028306D02*
X0052479Y0028306D01*
X0052256Y0026708D02*
X0037910Y0026708D01*
X0036557Y0026708D02*
X0022210Y0026708D01*
X0022210Y0025913D02*
X0022210Y0027768D01*
X0021500Y0029481D01*
X0020189Y0030793D01*
X0018475Y0031503D01*
X0016621Y0031503D01*
X0014907Y0030793D01*
X0013596Y0029481D01*
X0012886Y0027768D01*
X0012886Y0025913D01*
X0013596Y0024200D01*
X0014907Y0022888D01*
X0016621Y0022178D01*
X0018475Y0022178D01*
X0020189Y0022888D01*
X0021500Y0024200D01*
X0022210Y0025913D01*
X0021877Y0025109D02*
X0031246Y0025109D01*
X0031157Y0025382D02*
X0031460Y0024449D01*
X0031905Y0023576D01*
X0032482Y0022783D01*
X0033175Y0022089D01*
X0033968Y0021513D01*
X0034842Y0021068D01*
X0035774Y0020765D01*
X0036557Y0020641D01*
X0036557Y0026164D01*
X0031033Y0026164D01*
X0031157Y0025382D01*
X0031953Y0023511D02*
X0020811Y0023511D01*
X0020189Y0020950D02*
X0018475Y0021660D01*
X0016621Y0021660D01*
X0014907Y0020950D01*
X0013596Y0019639D01*
X0012886Y0017925D01*
X0012886Y0016071D01*
X0013596Y0014357D01*
X0014907Y0013046D01*
X0016621Y0012336D01*
X0018475Y0012336D01*
X0020189Y0013046D01*
X0021500Y0014357D01*
X0022210Y0016071D01*
X0022210Y0017925D01*
X0021500Y0019639D01*
X0020189Y0020950D01*
X0020826Y0020314D02*
X0053640Y0020314D01*
X0052583Y0018715D02*
X0021883Y0018715D01*
X0022210Y0017117D02*
X0052256Y0017117D01*
X0052485Y0015518D02*
X0021981Y0015518D01*
X0021063Y0013920D02*
X0053403Y0013920D01*
X0060433Y0013920D02*
X0063433Y0013920D01*
X0063697Y0015518D02*
X0061351Y0015518D01*
X0061580Y0017117D02*
X0064852Y0017117D01*
X0063867Y0012321D02*
X0010599Y0012321D01*
X0011033Y0013920D02*
X0014033Y0013920D01*
X0013115Y0015518D02*
X0010769Y0015518D01*
X0009615Y0017117D02*
X0012886Y0017117D01*
X0013213Y0018715D02*
X0004100Y0018715D01*
X0004100Y0017117D02*
X0004852Y0017117D01*
X0004100Y0020314D02*
X0014270Y0020314D01*
X0014285Y0023511D02*
X0011033Y0023511D01*
X0010395Y0021912D02*
X0033419Y0021912D01*
X0036557Y0021912D02*
X0037909Y0021912D01*
X0037909Y0023511D02*
X0036557Y0023511D01*
X0036557Y0025109D02*
X0037909Y0025109D01*
X0037909Y0028306D02*
X0036557Y0028306D01*
X0036557Y0029905D02*
X0037909Y0029905D01*
X0037909Y0031503D02*
X0036557Y0031503D01*
X0033086Y0031503D02*
X0009986Y0031503D01*
X0010923Y0033102D02*
X0063543Y0033102D01*
X0063433Y0034700D02*
X0011033Y0034700D01*
X0010432Y0036299D02*
X0064034Y0036299D01*
X0064480Y0031503D02*
X0041380Y0031503D01*
X0042663Y0029905D02*
X0053389Y0029905D01*
X0054798Y0041094D02*
X0049195Y0041094D01*
X0051486Y0042693D02*
X0052507Y0042693D01*
X0052834Y0050685D02*
X0051159Y0050685D01*
X0049276Y0052284D02*
X0055587Y0052284D01*
X0058249Y0052284D02*
X0063882Y0052284D01*
X0063433Y0053882D02*
X0049276Y0053882D01*
X0048121Y0055481D02*
X0063682Y0055481D01*
X0064814Y0057079D02*
X0046523Y0057079D01*
X0047076Y0053415D02*
X0047076Y0046526D01*
X0044956Y0041094D02*
X0029510Y0041094D01*
X0031801Y0042693D02*
X0034473Y0042693D01*
X0033112Y0044291D02*
X0032774Y0044291D01*
X0032639Y0049087D02*
X0033248Y0049087D01*
X0031474Y0050685D02*
X0035093Y0050685D01*
X0039374Y0050685D02*
X0042992Y0050685D01*
X0041827Y0049087D02*
X0041219Y0049087D01*
X0041354Y0044291D02*
X0041692Y0044291D01*
X0042665Y0042693D02*
X0039994Y0042693D01*
X0044876Y0052284D02*
X0028721Y0052284D01*
X0026060Y0052284D02*
X0018879Y0052284D01*
X0016217Y0052284D02*
X0010584Y0052284D01*
X0011033Y0053882D02*
X0043497Y0053882D01*
X0041899Y0055481D02*
X0010784Y0055481D01*
X0009652Y0057079D02*
X0040300Y0057079D01*
X0038702Y0058678D02*
X0004100Y0058678D01*
X0004100Y0060276D02*
X0037103Y0060276D01*
X0035505Y0061875D02*
X0010358Y0061875D01*
X0007233Y0064124D02*
X0036367Y0064124D01*
X0047076Y0053415D01*
X0041727Y0061875D02*
X0064108Y0061875D01*
X0063433Y0063473D02*
X0040129Y0063473D01*
X0038530Y0065072D02*
X0063513Y0065072D01*
X0064405Y0066670D02*
X0010061Y0066670D01*
X0009949Y0071466D02*
X0064517Y0071466D01*
X0063559Y0073064D02*
X0010907Y0073064D01*
X0011033Y0074663D02*
X0063433Y0074663D01*
X0064005Y0076261D02*
X0010461Y0076261D01*
X0004517Y0071466D02*
X0004100Y0071466D01*
X0004100Y0066670D02*
X0004405Y0066670D01*
X0004100Y0061875D02*
X0004108Y0061875D01*
X0004100Y0057079D02*
X0004814Y0057079D01*
X0004100Y0050685D02*
X0005605Y0050685D01*
X0004100Y0049087D02*
X0012300Y0049087D01*
X0011719Y0047488D02*
X0009041Y0047488D01*
X0010615Y0045890D02*
X0011719Y0045890D01*
X0012164Y0044291D02*
X0011033Y0044291D01*
X0010753Y0042693D02*
X0013137Y0042693D01*
X0015428Y0041094D02*
X0009577Y0041094D01*
X0005425Y0047488D02*
X0004100Y0047488D01*
X0004100Y0041094D02*
X0004889Y0041094D01*
X0004480Y0031503D02*
X0004100Y0031503D01*
X0004100Y0029905D02*
X0014019Y0029905D01*
X0013109Y0028306D02*
X0004100Y0028306D01*
X0004100Y0026708D02*
X0004443Y0026708D01*
X0010023Y0026708D02*
X0012886Y0026708D01*
X0013219Y0025109D02*
X0010938Y0025109D01*
X0019668Y0041094D02*
X0025271Y0041094D01*
X0022980Y0042693D02*
X0021959Y0042693D01*
X0017548Y0046526D02*
X0027391Y0046526D01*
X0023307Y0050685D02*
X0021632Y0050685D01*
X0013464Y0050685D02*
X0008861Y0050685D01*
X0021077Y0029905D02*
X0031803Y0029905D01*
X0031160Y0028306D02*
X0021987Y0028306D01*
X0024850Y0087451D02*
X0009131Y0087451D01*
X0004963Y0121020D02*
X0004100Y0121020D01*
X0061002Y0050685D02*
X0065605Y0050685D01*
X0069041Y0047488D02*
X0070366Y0047488D01*
X0064443Y0026708D02*
X0061580Y0026708D01*
X0061247Y0025109D02*
X0063528Y0025109D01*
X0061253Y0018715D02*
X0070366Y0018715D01*
X0070366Y0017117D02*
X0069615Y0017117D01*
M02*
