G75*
%MOIN*%
%OFA0B0*%
%FSLAX25Y25*%
%IPPOS*%
%LPD*%
%AMOC8*
5,1,8,0,0,1.08239X$1,22.5*
%
%ADD10C,0.00000*%
D10*
X0005737Y0009124D02*
X0068729Y0009124D01*
X0068853Y0009126D01*
X0068976Y0009132D01*
X0069100Y0009141D01*
X0069222Y0009155D01*
X0069345Y0009172D01*
X0069467Y0009194D01*
X0069588Y0009219D01*
X0069708Y0009248D01*
X0069827Y0009280D01*
X0069946Y0009317D01*
X0070063Y0009357D01*
X0070178Y0009400D01*
X0070293Y0009448D01*
X0070405Y0009499D01*
X0070516Y0009553D01*
X0070626Y0009611D01*
X0070733Y0009672D01*
X0070839Y0009737D01*
X0070942Y0009805D01*
X0071043Y0009876D01*
X0071142Y0009950D01*
X0071239Y0010027D01*
X0071333Y0010108D01*
X0071424Y0010191D01*
X0071513Y0010277D01*
X0071599Y0010366D01*
X0071682Y0010457D01*
X0071763Y0010551D01*
X0071840Y0010648D01*
X0071914Y0010747D01*
X0071985Y0010848D01*
X0072053Y0010951D01*
X0072118Y0011057D01*
X0072179Y0011164D01*
X0072237Y0011274D01*
X0072291Y0011385D01*
X0072342Y0011497D01*
X0072390Y0011612D01*
X0072433Y0011727D01*
X0072473Y0011844D01*
X0072510Y0011963D01*
X0072542Y0012082D01*
X0072571Y0012202D01*
X0072596Y0012323D01*
X0072618Y0012445D01*
X0072635Y0012568D01*
X0072649Y0012690D01*
X0072658Y0012814D01*
X0072664Y0012937D01*
X0072666Y0013061D01*
X0072666Y0135108D01*
X0072664Y0135232D01*
X0072658Y0135355D01*
X0072649Y0135479D01*
X0072635Y0135601D01*
X0072618Y0135724D01*
X0072596Y0135846D01*
X0072571Y0135967D01*
X0072542Y0136087D01*
X0072510Y0136206D01*
X0072473Y0136325D01*
X0072433Y0136442D01*
X0072390Y0136557D01*
X0072342Y0136672D01*
X0072291Y0136784D01*
X0072237Y0136895D01*
X0072179Y0137005D01*
X0072118Y0137112D01*
X0072053Y0137218D01*
X0071985Y0137321D01*
X0071914Y0137422D01*
X0071840Y0137521D01*
X0071763Y0137618D01*
X0071682Y0137712D01*
X0071599Y0137803D01*
X0071513Y0137892D01*
X0071424Y0137978D01*
X0071333Y0138061D01*
X0071239Y0138142D01*
X0071142Y0138219D01*
X0071043Y0138293D01*
X0070942Y0138364D01*
X0070839Y0138432D01*
X0070733Y0138497D01*
X0070626Y0138558D01*
X0070516Y0138616D01*
X0070405Y0138670D01*
X0070293Y0138721D01*
X0070178Y0138769D01*
X0070063Y0138812D01*
X0069946Y0138852D01*
X0069827Y0138889D01*
X0069708Y0138921D01*
X0069588Y0138950D01*
X0069467Y0138975D01*
X0069345Y0138997D01*
X0069222Y0139014D01*
X0069100Y0139028D01*
X0068976Y0139037D01*
X0068853Y0139043D01*
X0068729Y0139045D01*
X0005737Y0139045D01*
X0005613Y0139043D01*
X0005490Y0139037D01*
X0005366Y0139028D01*
X0005244Y0139014D01*
X0005121Y0138997D01*
X0004999Y0138975D01*
X0004878Y0138950D01*
X0004758Y0138921D01*
X0004639Y0138889D01*
X0004520Y0138852D01*
X0004403Y0138812D01*
X0004288Y0138769D01*
X0004173Y0138721D01*
X0004061Y0138670D01*
X0003950Y0138616D01*
X0003840Y0138558D01*
X0003733Y0138497D01*
X0003627Y0138432D01*
X0003524Y0138364D01*
X0003423Y0138293D01*
X0003324Y0138219D01*
X0003227Y0138142D01*
X0003133Y0138061D01*
X0003042Y0137978D01*
X0002953Y0137892D01*
X0002867Y0137803D01*
X0002784Y0137712D01*
X0002703Y0137618D01*
X0002626Y0137521D01*
X0002552Y0137422D01*
X0002481Y0137321D01*
X0002413Y0137218D01*
X0002348Y0137112D01*
X0002287Y0137005D01*
X0002229Y0136895D01*
X0002175Y0136784D01*
X0002124Y0136672D01*
X0002076Y0136557D01*
X0002033Y0136442D01*
X0001993Y0136325D01*
X0001956Y0136206D01*
X0001924Y0136087D01*
X0001895Y0135967D01*
X0001870Y0135846D01*
X0001848Y0135724D01*
X0001831Y0135601D01*
X0001817Y0135479D01*
X0001808Y0135355D01*
X0001802Y0135232D01*
X0001800Y0135108D01*
X0001800Y0013061D01*
X0001802Y0012937D01*
X0001808Y0012814D01*
X0001817Y0012690D01*
X0001831Y0012568D01*
X0001848Y0012445D01*
X0001870Y0012323D01*
X0001895Y0012202D01*
X0001924Y0012082D01*
X0001956Y0011963D01*
X0001993Y0011844D01*
X0002033Y0011727D01*
X0002076Y0011612D01*
X0002124Y0011497D01*
X0002175Y0011385D01*
X0002229Y0011274D01*
X0002287Y0011164D01*
X0002348Y0011057D01*
X0002413Y0010951D01*
X0002481Y0010848D01*
X0002552Y0010747D01*
X0002626Y0010648D01*
X0002703Y0010551D01*
X0002784Y0010457D01*
X0002867Y0010366D01*
X0002953Y0010277D01*
X0003042Y0010191D01*
X0003133Y0010108D01*
X0003227Y0010027D01*
X0003324Y0009950D01*
X0003423Y0009876D01*
X0003524Y0009805D01*
X0003627Y0009737D01*
X0003733Y0009672D01*
X0003840Y0009611D01*
X0003950Y0009553D01*
X0004061Y0009499D01*
X0004173Y0009448D01*
X0004288Y0009400D01*
X0004403Y0009357D01*
X0004520Y0009317D01*
X0004639Y0009280D01*
X0004758Y0009248D01*
X0004878Y0009219D01*
X0004999Y0009194D01*
X0005121Y0009172D01*
X0005244Y0009155D01*
X0005366Y0009141D01*
X0005490Y0009132D01*
X0005613Y0009126D01*
X0005737Y0009124D01*
X0015186Y0016998D02*
X0015188Y0017095D01*
X0015194Y0017192D01*
X0015204Y0017288D01*
X0015218Y0017384D01*
X0015236Y0017480D01*
X0015257Y0017574D01*
X0015283Y0017668D01*
X0015312Y0017760D01*
X0015346Y0017851D01*
X0015382Y0017941D01*
X0015423Y0018029D01*
X0015467Y0018115D01*
X0015515Y0018200D01*
X0015566Y0018282D01*
X0015620Y0018363D01*
X0015678Y0018441D01*
X0015739Y0018516D01*
X0015802Y0018589D01*
X0015869Y0018660D01*
X0015939Y0018727D01*
X0016011Y0018792D01*
X0016086Y0018853D01*
X0016164Y0018912D01*
X0016243Y0018967D01*
X0016325Y0019019D01*
X0016409Y0019067D01*
X0016495Y0019112D01*
X0016583Y0019154D01*
X0016672Y0019192D01*
X0016763Y0019226D01*
X0016855Y0019256D01*
X0016948Y0019283D01*
X0017043Y0019305D01*
X0017138Y0019324D01*
X0017234Y0019339D01*
X0017330Y0019350D01*
X0017427Y0019357D01*
X0017524Y0019360D01*
X0017621Y0019359D01*
X0017718Y0019354D01*
X0017814Y0019345D01*
X0017910Y0019332D01*
X0018006Y0019315D01*
X0018101Y0019294D01*
X0018194Y0019270D01*
X0018287Y0019241D01*
X0018379Y0019209D01*
X0018469Y0019173D01*
X0018557Y0019134D01*
X0018644Y0019090D01*
X0018729Y0019044D01*
X0018812Y0018993D01*
X0018893Y0018940D01*
X0018971Y0018883D01*
X0019048Y0018823D01*
X0019121Y0018760D01*
X0019192Y0018694D01*
X0019260Y0018625D01*
X0019326Y0018553D01*
X0019388Y0018479D01*
X0019447Y0018402D01*
X0019503Y0018323D01*
X0019556Y0018241D01*
X0019606Y0018158D01*
X0019651Y0018072D01*
X0019694Y0017985D01*
X0019733Y0017896D01*
X0019768Y0017806D01*
X0019799Y0017714D01*
X0019826Y0017621D01*
X0019850Y0017527D01*
X0019870Y0017432D01*
X0019886Y0017336D01*
X0019898Y0017240D01*
X0019906Y0017143D01*
X0019910Y0017046D01*
X0019910Y0016950D01*
X0019906Y0016853D01*
X0019898Y0016756D01*
X0019886Y0016660D01*
X0019870Y0016564D01*
X0019850Y0016469D01*
X0019826Y0016375D01*
X0019799Y0016282D01*
X0019768Y0016190D01*
X0019733Y0016100D01*
X0019694Y0016011D01*
X0019651Y0015924D01*
X0019606Y0015838D01*
X0019556Y0015755D01*
X0019503Y0015673D01*
X0019447Y0015594D01*
X0019388Y0015517D01*
X0019326Y0015443D01*
X0019260Y0015371D01*
X0019192Y0015302D01*
X0019121Y0015236D01*
X0019048Y0015173D01*
X0018971Y0015113D01*
X0018893Y0015056D01*
X0018812Y0015003D01*
X0018729Y0014952D01*
X0018644Y0014906D01*
X0018557Y0014862D01*
X0018469Y0014823D01*
X0018379Y0014787D01*
X0018287Y0014755D01*
X0018194Y0014726D01*
X0018101Y0014702D01*
X0018006Y0014681D01*
X0017910Y0014664D01*
X0017814Y0014651D01*
X0017718Y0014642D01*
X0017621Y0014637D01*
X0017524Y0014636D01*
X0017427Y0014639D01*
X0017330Y0014646D01*
X0017234Y0014657D01*
X0017138Y0014672D01*
X0017043Y0014691D01*
X0016948Y0014713D01*
X0016855Y0014740D01*
X0016763Y0014770D01*
X0016672Y0014804D01*
X0016583Y0014842D01*
X0016495Y0014884D01*
X0016409Y0014929D01*
X0016325Y0014977D01*
X0016243Y0015029D01*
X0016164Y0015084D01*
X0016086Y0015143D01*
X0016011Y0015204D01*
X0015939Y0015269D01*
X0015869Y0015336D01*
X0015802Y0015407D01*
X0015739Y0015480D01*
X0015678Y0015555D01*
X0015620Y0015633D01*
X0015566Y0015714D01*
X0015515Y0015796D01*
X0015467Y0015881D01*
X0015423Y0015967D01*
X0015382Y0016055D01*
X0015346Y0016145D01*
X0015312Y0016236D01*
X0015283Y0016328D01*
X0015257Y0016422D01*
X0015236Y0016516D01*
X0015218Y0016612D01*
X0015204Y0016708D01*
X0015194Y0016804D01*
X0015188Y0016901D01*
X0015186Y0016998D01*
X0015186Y0026841D02*
X0015188Y0026938D01*
X0015194Y0027035D01*
X0015204Y0027131D01*
X0015218Y0027227D01*
X0015236Y0027323D01*
X0015257Y0027417D01*
X0015283Y0027511D01*
X0015312Y0027603D01*
X0015346Y0027694D01*
X0015382Y0027784D01*
X0015423Y0027872D01*
X0015467Y0027958D01*
X0015515Y0028043D01*
X0015566Y0028125D01*
X0015620Y0028206D01*
X0015678Y0028284D01*
X0015739Y0028359D01*
X0015802Y0028432D01*
X0015869Y0028503D01*
X0015939Y0028570D01*
X0016011Y0028635D01*
X0016086Y0028696D01*
X0016164Y0028755D01*
X0016243Y0028810D01*
X0016325Y0028862D01*
X0016409Y0028910D01*
X0016495Y0028955D01*
X0016583Y0028997D01*
X0016672Y0029035D01*
X0016763Y0029069D01*
X0016855Y0029099D01*
X0016948Y0029126D01*
X0017043Y0029148D01*
X0017138Y0029167D01*
X0017234Y0029182D01*
X0017330Y0029193D01*
X0017427Y0029200D01*
X0017524Y0029203D01*
X0017621Y0029202D01*
X0017718Y0029197D01*
X0017814Y0029188D01*
X0017910Y0029175D01*
X0018006Y0029158D01*
X0018101Y0029137D01*
X0018194Y0029113D01*
X0018287Y0029084D01*
X0018379Y0029052D01*
X0018469Y0029016D01*
X0018557Y0028977D01*
X0018644Y0028933D01*
X0018729Y0028887D01*
X0018812Y0028836D01*
X0018893Y0028783D01*
X0018971Y0028726D01*
X0019048Y0028666D01*
X0019121Y0028603D01*
X0019192Y0028537D01*
X0019260Y0028468D01*
X0019326Y0028396D01*
X0019388Y0028322D01*
X0019447Y0028245D01*
X0019503Y0028166D01*
X0019556Y0028084D01*
X0019606Y0028001D01*
X0019651Y0027915D01*
X0019694Y0027828D01*
X0019733Y0027739D01*
X0019768Y0027649D01*
X0019799Y0027557D01*
X0019826Y0027464D01*
X0019850Y0027370D01*
X0019870Y0027275D01*
X0019886Y0027179D01*
X0019898Y0027083D01*
X0019906Y0026986D01*
X0019910Y0026889D01*
X0019910Y0026793D01*
X0019906Y0026696D01*
X0019898Y0026599D01*
X0019886Y0026503D01*
X0019870Y0026407D01*
X0019850Y0026312D01*
X0019826Y0026218D01*
X0019799Y0026125D01*
X0019768Y0026033D01*
X0019733Y0025943D01*
X0019694Y0025854D01*
X0019651Y0025767D01*
X0019606Y0025681D01*
X0019556Y0025598D01*
X0019503Y0025516D01*
X0019447Y0025437D01*
X0019388Y0025360D01*
X0019326Y0025286D01*
X0019260Y0025214D01*
X0019192Y0025145D01*
X0019121Y0025079D01*
X0019048Y0025016D01*
X0018971Y0024956D01*
X0018893Y0024899D01*
X0018812Y0024846D01*
X0018729Y0024795D01*
X0018644Y0024749D01*
X0018557Y0024705D01*
X0018469Y0024666D01*
X0018379Y0024630D01*
X0018287Y0024598D01*
X0018194Y0024569D01*
X0018101Y0024545D01*
X0018006Y0024524D01*
X0017910Y0024507D01*
X0017814Y0024494D01*
X0017718Y0024485D01*
X0017621Y0024480D01*
X0017524Y0024479D01*
X0017427Y0024482D01*
X0017330Y0024489D01*
X0017234Y0024500D01*
X0017138Y0024515D01*
X0017043Y0024534D01*
X0016948Y0024556D01*
X0016855Y0024583D01*
X0016763Y0024613D01*
X0016672Y0024647D01*
X0016583Y0024685D01*
X0016495Y0024727D01*
X0016409Y0024772D01*
X0016325Y0024820D01*
X0016243Y0024872D01*
X0016164Y0024927D01*
X0016086Y0024986D01*
X0016011Y0025047D01*
X0015939Y0025112D01*
X0015869Y0025179D01*
X0015802Y0025250D01*
X0015739Y0025323D01*
X0015678Y0025398D01*
X0015620Y0025476D01*
X0015566Y0025557D01*
X0015515Y0025639D01*
X0015467Y0025724D01*
X0015423Y0025810D01*
X0015382Y0025898D01*
X0015346Y0025988D01*
X0015312Y0026079D01*
X0015283Y0026171D01*
X0015257Y0026265D01*
X0015236Y0026359D01*
X0015218Y0026455D01*
X0015204Y0026551D01*
X0015194Y0026647D01*
X0015188Y0026744D01*
X0015186Y0026841D01*
X0034871Y0046526D02*
X0034873Y0046623D01*
X0034879Y0046720D01*
X0034889Y0046816D01*
X0034903Y0046912D01*
X0034921Y0047008D01*
X0034942Y0047102D01*
X0034968Y0047196D01*
X0034997Y0047288D01*
X0035031Y0047379D01*
X0035067Y0047469D01*
X0035108Y0047557D01*
X0035152Y0047643D01*
X0035200Y0047728D01*
X0035251Y0047810D01*
X0035305Y0047891D01*
X0035363Y0047969D01*
X0035424Y0048044D01*
X0035487Y0048117D01*
X0035554Y0048188D01*
X0035624Y0048255D01*
X0035696Y0048320D01*
X0035771Y0048381D01*
X0035849Y0048440D01*
X0035928Y0048495D01*
X0036010Y0048547D01*
X0036094Y0048595D01*
X0036180Y0048640D01*
X0036268Y0048682D01*
X0036357Y0048720D01*
X0036448Y0048754D01*
X0036540Y0048784D01*
X0036633Y0048811D01*
X0036728Y0048833D01*
X0036823Y0048852D01*
X0036919Y0048867D01*
X0037015Y0048878D01*
X0037112Y0048885D01*
X0037209Y0048888D01*
X0037306Y0048887D01*
X0037403Y0048882D01*
X0037499Y0048873D01*
X0037595Y0048860D01*
X0037691Y0048843D01*
X0037786Y0048822D01*
X0037879Y0048798D01*
X0037972Y0048769D01*
X0038064Y0048737D01*
X0038154Y0048701D01*
X0038242Y0048662D01*
X0038329Y0048618D01*
X0038414Y0048572D01*
X0038497Y0048521D01*
X0038578Y0048468D01*
X0038656Y0048411D01*
X0038733Y0048351D01*
X0038806Y0048288D01*
X0038877Y0048222D01*
X0038945Y0048153D01*
X0039011Y0048081D01*
X0039073Y0048007D01*
X0039132Y0047930D01*
X0039188Y0047851D01*
X0039241Y0047769D01*
X0039291Y0047686D01*
X0039336Y0047600D01*
X0039379Y0047513D01*
X0039418Y0047424D01*
X0039453Y0047334D01*
X0039484Y0047242D01*
X0039511Y0047149D01*
X0039535Y0047055D01*
X0039555Y0046960D01*
X0039571Y0046864D01*
X0039583Y0046768D01*
X0039591Y0046671D01*
X0039595Y0046574D01*
X0039595Y0046478D01*
X0039591Y0046381D01*
X0039583Y0046284D01*
X0039571Y0046188D01*
X0039555Y0046092D01*
X0039535Y0045997D01*
X0039511Y0045903D01*
X0039484Y0045810D01*
X0039453Y0045718D01*
X0039418Y0045628D01*
X0039379Y0045539D01*
X0039336Y0045452D01*
X0039291Y0045366D01*
X0039241Y0045283D01*
X0039188Y0045201D01*
X0039132Y0045122D01*
X0039073Y0045045D01*
X0039011Y0044971D01*
X0038945Y0044899D01*
X0038877Y0044830D01*
X0038806Y0044764D01*
X0038733Y0044701D01*
X0038656Y0044641D01*
X0038578Y0044584D01*
X0038497Y0044531D01*
X0038414Y0044480D01*
X0038329Y0044434D01*
X0038242Y0044390D01*
X0038154Y0044351D01*
X0038064Y0044315D01*
X0037972Y0044283D01*
X0037879Y0044254D01*
X0037786Y0044230D01*
X0037691Y0044209D01*
X0037595Y0044192D01*
X0037499Y0044179D01*
X0037403Y0044170D01*
X0037306Y0044165D01*
X0037209Y0044164D01*
X0037112Y0044167D01*
X0037015Y0044174D01*
X0036919Y0044185D01*
X0036823Y0044200D01*
X0036728Y0044219D01*
X0036633Y0044241D01*
X0036540Y0044268D01*
X0036448Y0044298D01*
X0036357Y0044332D01*
X0036268Y0044370D01*
X0036180Y0044412D01*
X0036094Y0044457D01*
X0036010Y0044505D01*
X0035928Y0044557D01*
X0035849Y0044612D01*
X0035771Y0044671D01*
X0035696Y0044732D01*
X0035624Y0044797D01*
X0035554Y0044864D01*
X0035487Y0044935D01*
X0035424Y0045008D01*
X0035363Y0045083D01*
X0035305Y0045161D01*
X0035251Y0045242D01*
X0035200Y0045324D01*
X0035152Y0045409D01*
X0035108Y0045495D01*
X0035067Y0045583D01*
X0035031Y0045673D01*
X0034997Y0045764D01*
X0034968Y0045856D01*
X0034942Y0045950D01*
X0034921Y0046044D01*
X0034903Y0046140D01*
X0034889Y0046236D01*
X0034879Y0046332D01*
X0034873Y0046429D01*
X0034871Y0046526D01*
X0054556Y0026841D02*
X0054558Y0026938D01*
X0054564Y0027035D01*
X0054574Y0027131D01*
X0054588Y0027227D01*
X0054606Y0027323D01*
X0054627Y0027417D01*
X0054653Y0027511D01*
X0054682Y0027603D01*
X0054716Y0027694D01*
X0054752Y0027784D01*
X0054793Y0027872D01*
X0054837Y0027958D01*
X0054885Y0028043D01*
X0054936Y0028125D01*
X0054990Y0028206D01*
X0055048Y0028284D01*
X0055109Y0028359D01*
X0055172Y0028432D01*
X0055239Y0028503D01*
X0055309Y0028570D01*
X0055381Y0028635D01*
X0055456Y0028696D01*
X0055534Y0028755D01*
X0055613Y0028810D01*
X0055695Y0028862D01*
X0055779Y0028910D01*
X0055865Y0028955D01*
X0055953Y0028997D01*
X0056042Y0029035D01*
X0056133Y0029069D01*
X0056225Y0029099D01*
X0056318Y0029126D01*
X0056413Y0029148D01*
X0056508Y0029167D01*
X0056604Y0029182D01*
X0056700Y0029193D01*
X0056797Y0029200D01*
X0056894Y0029203D01*
X0056991Y0029202D01*
X0057088Y0029197D01*
X0057184Y0029188D01*
X0057280Y0029175D01*
X0057376Y0029158D01*
X0057471Y0029137D01*
X0057564Y0029113D01*
X0057657Y0029084D01*
X0057749Y0029052D01*
X0057839Y0029016D01*
X0057927Y0028977D01*
X0058014Y0028933D01*
X0058099Y0028887D01*
X0058182Y0028836D01*
X0058263Y0028783D01*
X0058341Y0028726D01*
X0058418Y0028666D01*
X0058491Y0028603D01*
X0058562Y0028537D01*
X0058630Y0028468D01*
X0058696Y0028396D01*
X0058758Y0028322D01*
X0058817Y0028245D01*
X0058873Y0028166D01*
X0058926Y0028084D01*
X0058976Y0028001D01*
X0059021Y0027915D01*
X0059064Y0027828D01*
X0059103Y0027739D01*
X0059138Y0027649D01*
X0059169Y0027557D01*
X0059196Y0027464D01*
X0059220Y0027370D01*
X0059240Y0027275D01*
X0059256Y0027179D01*
X0059268Y0027083D01*
X0059276Y0026986D01*
X0059280Y0026889D01*
X0059280Y0026793D01*
X0059276Y0026696D01*
X0059268Y0026599D01*
X0059256Y0026503D01*
X0059240Y0026407D01*
X0059220Y0026312D01*
X0059196Y0026218D01*
X0059169Y0026125D01*
X0059138Y0026033D01*
X0059103Y0025943D01*
X0059064Y0025854D01*
X0059021Y0025767D01*
X0058976Y0025681D01*
X0058926Y0025598D01*
X0058873Y0025516D01*
X0058817Y0025437D01*
X0058758Y0025360D01*
X0058696Y0025286D01*
X0058630Y0025214D01*
X0058562Y0025145D01*
X0058491Y0025079D01*
X0058418Y0025016D01*
X0058341Y0024956D01*
X0058263Y0024899D01*
X0058182Y0024846D01*
X0058099Y0024795D01*
X0058014Y0024749D01*
X0057927Y0024705D01*
X0057839Y0024666D01*
X0057749Y0024630D01*
X0057657Y0024598D01*
X0057564Y0024569D01*
X0057471Y0024545D01*
X0057376Y0024524D01*
X0057280Y0024507D01*
X0057184Y0024494D01*
X0057088Y0024485D01*
X0056991Y0024480D01*
X0056894Y0024479D01*
X0056797Y0024482D01*
X0056700Y0024489D01*
X0056604Y0024500D01*
X0056508Y0024515D01*
X0056413Y0024534D01*
X0056318Y0024556D01*
X0056225Y0024583D01*
X0056133Y0024613D01*
X0056042Y0024647D01*
X0055953Y0024685D01*
X0055865Y0024727D01*
X0055779Y0024772D01*
X0055695Y0024820D01*
X0055613Y0024872D01*
X0055534Y0024927D01*
X0055456Y0024986D01*
X0055381Y0025047D01*
X0055309Y0025112D01*
X0055239Y0025179D01*
X0055172Y0025250D01*
X0055109Y0025323D01*
X0055048Y0025398D01*
X0054990Y0025476D01*
X0054936Y0025557D01*
X0054885Y0025639D01*
X0054837Y0025724D01*
X0054793Y0025810D01*
X0054752Y0025898D01*
X0054716Y0025988D01*
X0054682Y0026079D01*
X0054653Y0026171D01*
X0054627Y0026265D01*
X0054606Y0026359D01*
X0054588Y0026455D01*
X0054574Y0026551D01*
X0054564Y0026647D01*
X0054558Y0026744D01*
X0054556Y0026841D01*
X0054556Y0016998D02*
X0054558Y0017095D01*
X0054564Y0017192D01*
X0054574Y0017288D01*
X0054588Y0017384D01*
X0054606Y0017480D01*
X0054627Y0017574D01*
X0054653Y0017668D01*
X0054682Y0017760D01*
X0054716Y0017851D01*
X0054752Y0017941D01*
X0054793Y0018029D01*
X0054837Y0018115D01*
X0054885Y0018200D01*
X0054936Y0018282D01*
X0054990Y0018363D01*
X0055048Y0018441D01*
X0055109Y0018516D01*
X0055172Y0018589D01*
X0055239Y0018660D01*
X0055309Y0018727D01*
X0055381Y0018792D01*
X0055456Y0018853D01*
X0055534Y0018912D01*
X0055613Y0018967D01*
X0055695Y0019019D01*
X0055779Y0019067D01*
X0055865Y0019112D01*
X0055953Y0019154D01*
X0056042Y0019192D01*
X0056133Y0019226D01*
X0056225Y0019256D01*
X0056318Y0019283D01*
X0056413Y0019305D01*
X0056508Y0019324D01*
X0056604Y0019339D01*
X0056700Y0019350D01*
X0056797Y0019357D01*
X0056894Y0019360D01*
X0056991Y0019359D01*
X0057088Y0019354D01*
X0057184Y0019345D01*
X0057280Y0019332D01*
X0057376Y0019315D01*
X0057471Y0019294D01*
X0057564Y0019270D01*
X0057657Y0019241D01*
X0057749Y0019209D01*
X0057839Y0019173D01*
X0057927Y0019134D01*
X0058014Y0019090D01*
X0058099Y0019044D01*
X0058182Y0018993D01*
X0058263Y0018940D01*
X0058341Y0018883D01*
X0058418Y0018823D01*
X0058491Y0018760D01*
X0058562Y0018694D01*
X0058630Y0018625D01*
X0058696Y0018553D01*
X0058758Y0018479D01*
X0058817Y0018402D01*
X0058873Y0018323D01*
X0058926Y0018241D01*
X0058976Y0018158D01*
X0059021Y0018072D01*
X0059064Y0017985D01*
X0059103Y0017896D01*
X0059138Y0017806D01*
X0059169Y0017714D01*
X0059196Y0017621D01*
X0059220Y0017527D01*
X0059240Y0017432D01*
X0059256Y0017336D01*
X0059268Y0017240D01*
X0059276Y0017143D01*
X0059280Y0017046D01*
X0059280Y0016950D01*
X0059276Y0016853D01*
X0059268Y0016756D01*
X0059256Y0016660D01*
X0059240Y0016564D01*
X0059220Y0016469D01*
X0059196Y0016375D01*
X0059169Y0016282D01*
X0059138Y0016190D01*
X0059103Y0016100D01*
X0059064Y0016011D01*
X0059021Y0015924D01*
X0058976Y0015838D01*
X0058926Y0015755D01*
X0058873Y0015673D01*
X0058817Y0015594D01*
X0058758Y0015517D01*
X0058696Y0015443D01*
X0058630Y0015371D01*
X0058562Y0015302D01*
X0058491Y0015236D01*
X0058418Y0015173D01*
X0058341Y0015113D01*
X0058263Y0015056D01*
X0058182Y0015003D01*
X0058099Y0014952D01*
X0058014Y0014906D01*
X0057927Y0014862D01*
X0057839Y0014823D01*
X0057749Y0014787D01*
X0057657Y0014755D01*
X0057564Y0014726D01*
X0057471Y0014702D01*
X0057376Y0014681D01*
X0057280Y0014664D01*
X0057184Y0014651D01*
X0057088Y0014642D01*
X0056991Y0014637D01*
X0056894Y0014636D01*
X0056797Y0014639D01*
X0056700Y0014646D01*
X0056604Y0014657D01*
X0056508Y0014672D01*
X0056413Y0014691D01*
X0056318Y0014713D01*
X0056225Y0014740D01*
X0056133Y0014770D01*
X0056042Y0014804D01*
X0055953Y0014842D01*
X0055865Y0014884D01*
X0055779Y0014929D01*
X0055695Y0014977D01*
X0055613Y0015029D01*
X0055534Y0015084D01*
X0055456Y0015143D01*
X0055381Y0015204D01*
X0055309Y0015269D01*
X0055239Y0015336D01*
X0055172Y0015407D01*
X0055109Y0015480D01*
X0055048Y0015555D01*
X0054990Y0015633D01*
X0054936Y0015714D01*
X0054885Y0015796D01*
X0054837Y0015881D01*
X0054793Y0015967D01*
X0054752Y0016055D01*
X0054716Y0016145D01*
X0054682Y0016236D01*
X0054653Y0016328D01*
X0054627Y0016422D01*
X0054606Y0016516D01*
X0054588Y0016612D01*
X0054574Y0016708D01*
X0054564Y0016804D01*
X0054558Y0016901D01*
X0054556Y0016998D01*
M02*
